# xmcd
# Copyright (C) 1995-1998 Ti Kan
#
# Track frame offsets:
#       150
#       14850
#       31200
#       47550
#       65025
#       81675
#       99825
#       115725
#
# Disc length: 1770 seconds
#
# Revision: 0
# Processed by: cddbd v1.5.2PL0 Copyright (c) Steve Scherf et al.
# Submitted via: CD-Transfer v1.0
#
DISCID=6806e808
DTITLE=You Gene - Come On Stay
DYEAR=08
DGENRE=
TTITLE0=Come On Stay
TTITLE1=Expose You
TTITLE2=Schifahren In Afrika
TTITLE3=Denk Immer Noch An Dich
TTITLE4=Never Enough
TTITLE5=Miracle
TTITLE6=Piz5
TTITLE7=Schifahrn In Afrika
EXTD=
EXTT0=
EXTT1=
EXTT2=
EXTT3=
EXTT4=
EXTT5=
EXTT6=
EXTT7=
PLAYORDER=
